<svg version="1.2" xmlns="http://www.w3.org/2000/svg" viewBox="0 0 18 17" width="18" height="17"><defs><clipPath clipPathUnits="userSpaceOnUse" id="cp1"><path d="m-602-468h1440v900h-1440z" /></clipPath></defs><style>.s0{fill:#ffffff;stroke:#ffffff;stroke-width:.2}</style><g clip-path="url(#cp1)"><path fill-rule="evenodd" class="s0" d="m10.6 7.1c0.2 0 0.3 0.1 0.3 0.3v2.2c0 0.2-0.1 0.3-0.3 0.3h-2.2c-0.2 0-0.3-0.1-0.3-0.3v-2.2c0-0.2 0.1-0.3 0.3-0.3zm4.5 7.8c0.1 0.1 0.1 0.1-0.1 0.1h-2.7c-0.1 0-0.2 0.1-0.2 0.3v0.5c0 0.1 0.1 0.2 0.2 0.2h4.4c0.1 0 0.2-0.1 0.2-0.2v-4.4c0-0.1-0.1-0.2-0.2-0.2h-0.5c-0.1 0-0.2 0.1-0.2 0.2v2.7q-0.1 0.2-0.2 0.1l-3.8-3.8c-0.1-0.1-0.2-0.3-0.2-0.4v-3c0-0.1 0.1-0.3 0.2-0.4l3.8-3.8c0.1-0.1 0.2 0 0.2 0.1v2.7c0 0.1 0.1 0.2 0.2 0.2h0.5c0.1 0 0.2-0.1 0.2-0.2v-4.4c0-0.1-0.1-0.2-0.2-0.2h-4.4c-0.1 0-0.2 0.1-0.2 0.2v0.5c0 0.2 0.1 0.3 0.2 0.3h2.7c0.2 0 0.2 0 0.1 0.1l-3.8 3.8c-0.1 0.1-0.3 0.2-0.4 0.2h-3c-0.1 0-0.3-0.1-0.4-0.2l-3.8-3.8c-0.1-0.1 0-0.1 0.1-0.1h2.7c0.2 0 0.3-0.1 0.3-0.3v-0.5c0-0.1-0.2-0.2-0.3-0.2h-4.3c-0.2 0-0.3 0.1-0.3 0.2v4.4c0 0.1 0.1 0.2 0.3 0.2h0.4c0.2 0 0.3-0.1 0.3-0.2v-2.7q0-0.2 0.2-0.1l3.7 3.8c0.1 0.1 0.2 0.3 0.2 0.4v3c0 0.1-0.1 0.3-0.2 0.4l-3.7 3.8c-0.1 0.1-0.2 0-0.2-0.1v-2.7c0-0.1-0.1-0.2-0.3-0.2h-0.4c-0.2 0-0.3 0.1-0.3 0.2v4.4c0 0.1 0.1 0.2 0.3 0.2h4.3c0.1 0 0.3-0.1 0.3-0.2v-0.5c0-0.2-0.1-0.3-0.3-0.3h-2.7q-0.2 0-0.1-0.1l3.8-3.8c0.1-0.1 0.3-0.2 0.4-0.2h3c0.1 0 0.3 0.1 0.4 0.2z" /></g></svg>