<?xml version="1.0" encoding="UTF-8" standalone="no"?>
<svg
   xmlns:dc="http://purl.org/dc/elements/1.1/"
   xmlns:cc="http://creativecommons.org/ns#"
   xmlns:rdf="http://www.w3.org/1999/02/22-rdf-syntax-ns#"
   xmlns:svg="http://www.w3.org/2000/svg"
   xmlns="http://www.w3.org/2000/svg"
   xmlns:sodipodi="http://sodipodi.sourceforge.net/DTD/sodipodi-0.dtd"
   xmlns:inkscape="http://www.inkscape.org/namespaces/inkscape"
   version="1.2"
   viewBox="0 0 17 17"
   width="17"
   height="17"
   id="svg879"
   sodipodi:docname="home.svg"
   inkscape:version="0.92.4 (5da689c313, 2019-01-14)">
  <metadata
     id="metadata883">
    <rdf:RDF>
      <cc:Work
         rdf:about="">
        <dc:format>image/svg+xml</dc:format>
        <dc:type
           rdf:resource="http://purl.org/dc/dcmitype/StillImage" />
      </cc:Work>
    </rdf:RDF>
  </metadata>
  <sodipodi:namedview
     pagecolor="#ffffff"
     bordercolor="#666666"
     borderopacity="1"
     objecttolerance="10"
     gridtolerance="10"
     guidetolerance="10"
     inkscape:pageopacity="0"
     inkscape:pageshadow="2"
     inkscape:window-width="1918"
     inkscape:window-height="1054"
     id="namedview881"
     showgrid="false"
     inkscape:zoom="36.020851"
     inkscape:cx="11.632626"
     inkscape:cy="8.5"
     inkscape:window-x="1"
     inkscape:window-y="1"
     inkscape:window-maximized="1"
     inkscape:current-layer="g877" />
  <defs
     id="defs871">
    <marker
       style="overflow:visible"
       id="DistanceEnd"
       refX="0.0"
       refY="0.0"
       orient="auto"
       inkscape:stockid="DistanceEnd"
       inkscape:isstock="true">
      <g
         id="g2301">
        <path
           style="fill:none;stroke:#ffffff;stroke-width:1.15;stroke-linecap:square"
           d="M 0,0 L -2,0"
           id="path2316" />
        <path
           style="fill:#000000;fill-rule:evenodd;stroke:none"
           d="M 0,0 L -13,4 L -9,0 -13,-4 L 0,0 z "
           id="path2312" />
        <path
           style="fill:none;stroke:#000000;stroke-width:1;stroke-linecap:square"
           d="M 0,-4 L 0,40"
           id="path2314" />
      </g>
    </marker>
    <marker
       style="overflow:visible"
       id="marker1170"
       refX="0.0"
       refY="0.0"
       orient="auto"
       inkscape:stockid="DistanceStart"
       inkscape:isstock="true">
      <g
         id="g1168">
        <path
           style="fill:none;stroke:#ffffff;stroke-width:1.15;stroke-linecap:square"
           d="M 0,0 L 2,0"
           id="path1162" />
        <path
           style="fill:#000000;fill-rule:evenodd;stroke:none"
           d="M 0,0 L 13,4 L 9,0 13,-4 L 0,0 z "
           id="path1164" />
        <path
           style="fill:none;stroke:#000000;stroke-width:1;stroke-linecap:square"
           d="M 0,-4 L 0,40"
           id="path1166" />
      </g>
    </marker>
    <marker
       style="overflow:visible"
       id="DistanceStart"
       refX="0.0"
       refY="0.0"
       orient="auto"
       inkscape:stockid="DistanceStart"
       inkscape:isstock="true">
      <g
         id="g2300">
        <path
           style="fill:none;stroke:#ffffff;stroke-width:1.15;stroke-linecap:square"
           d="M 0,0 L 2,0"
           id="path2306" />
        <path
           style="fill:#000000;fill-rule:evenodd;stroke:none"
           d="M 0,0 L 13,4 L 9,0 13,-4 L 0,0 z "
           id="path2302" />
        <path
           style="fill:none;stroke:#000000;stroke-width:1;stroke-linecap:square"
           d="M 0,-4 L 0,40"
           id="path2304" />
      </g>
    </marker>
    <clipPath
       clipPathUnits="userSpaceOnUse"
       id="cp1">
      <path
         d="m-165-467h1440v900h-1440z"
         id="path868" />
    </clipPath>
  </defs>
  <style
     id="style873">.s0{fill:#ffffff}</style>
  <g
     clip-path="url(#cp1)"
     id="g877">
    <path
       class="s0"
       d="m 8.6,1 c 1.5,-0.2 3.2,0.2 4.5,1 1.4,0.9 2.5,2.3 3,3.9 0.5,1.5 0.4,3.3 -0.3,4.8 -0.7,1.7 -2.1,3 -3.8,3.6 C 10.6,14.9 9,15 7.5,14.5 6.6,14.3 5.7,13.8 5,13.2 L 1.9,16.3 1,15.4 4.1,12.3 C 3.1,11.1 2.5,9.5 2.5,7.9 2.5,6.4 3.1,4.6 4.2,3.4 5.3,2 6.9,1.2 8.6,1 Z M 8.5,2.2 C 7.5,2.4 6.5,2.9 5.7,3.5 4.8,4.3 4.2,5.3 3.9,6.4 3.6,7.6 3.6,9 4.2,10.2 4.8,11.4 5.8,12.4 7,13 c 1.1,0.5 2.5,0.6 3.6,0.4 2,-0.5 3.6,-2 4.2,-3.9 0.4,-1.3 0.3,-2.8 -0.2,-4 C 14.1,4.3 13.1,3.3 11.9,2.7 10.9,2.2 9.7,2 8.5,2.2 Z"
       id="path875"
       inkscape:connector-curvature="0"
       style="fill:#ffffff;fill-rule:evenodd"
       sodipodi:nodetypes="ccccccccccscccccscccssc" />
    <path
       style="fill:none;stroke:#ffffff;stroke-width:1.13385827;stroke-linecap:butt;stroke-linejoin:miter;stroke-opacity:1;stroke-miterlimit:4;stroke-dasharray:none"
       d="M 9.3279306,12.309431 V 4.3695851 l -1.568536,1.568536"
       id="path1199"
       inkscape:connector-curvature="0" />
  </g>
</svg>
