<svg version="1.2" xmlns="http://www.w3.org/2000/svg" viewBox="0 0 17 18" width="17" height="18"><defs><clipPath clipPathUnits="userSpaceOnUse" id="cp1"><path d="m-197-467h1440v900h-1440z" /></clipPath></defs><style>.s0{fill:#ffffff}.s1{fill:none;stroke:#ffffff;stroke-linecap:square;stroke-width:1.5}</style><g clip-path="url(#cp1)"><path fill-rule="evenodd" class="s0" d="m8.6 1c1.5-0.2 3.3 0.2 4.7 1c1.4 1 2.5 2.4 3.1 4.1c0.5 1.7 0.4 3.5-0.3 5.1c-0.7 1.8-2.2 3.1-4 3.8c-1.5 0.6-3.2 0.7-4.7 0.2c-1-0.3-1.9-0.8-2.7-1.4c-1 1.1-2.1 2.1-3.2 3.3c-0.4-0.4-0.6-0.6-1-1c1.1-1 2.2-2.1 3.3-3.2c-1.1-1.3-1.7-2.9-1.7-4.7c0-1.6 0.6-3.4 1.7-4.7c1.2-1.4 3-2.3 4.8-2.5zm-0.2 1.3c-1 0.2-2.1 0.7-2.9 1.3c-0.9 0.8-1.6 1.9-1.9 3c-0.3 1.4-0.3 2.8 0.3 4.1c0.6 1.3 1.7 2.3 2.9 2.9c1.2 0.5 2.6 0.7 3.9 0.4c2-0.5 3.7-2 4.3-4.1c0.4-1.3 0.4-2.9-0.2-4.1c-0.6-1.3-1.5-2.4-2.8-3c-1.1-0.5-2.3-0.7-3.6-0.5z" /><path class="s1" d="m7.1 8.2h4.6" /></g></svg>