<svg version="1.2" xmlns="http://www.w3.org/2000/svg" viewBox="0 0 17 17" width="17" height="17"><defs><clipPath clipPathUnits="userSpaceOnUse" id="cp1"><path d="m-165-467h1440v900h-1440z" /></clipPath></defs><style>.s0{fill:#ffffff}</style><g clip-path="url(#cp1)"><path fill-rule="evenodd" class="s0" d="m8.6 1c1.5-0.2 3.2 0.2 4.5 1c1.4 0.9 2.5 2.3 3 3.9c0.5 1.5 0.4 3.3-0.3 4.8c-0.7 1.7-2.1 3-3.8 3.6c-1.4 0.6-3 0.7-4.5 0.2c-0.9-0.2-1.8-0.7-2.5-1.3c-1 1-2 2-3.1 3.1c-0.3-0.3-0.6-0.6-0.9-0.9c1-1 2-2 3.1-3.1c-1-1.2-1.6-2.8-1.6-4.4c0-1.5 0.6-3.3 1.7-4.5c1.1-1.4 2.7-2.2 4.4-2.4zm-0.1 1.2c-1 0.2-2 0.7-2.8 1.3c-0.9 0.8-1.5 1.8-1.8 2.9c-0.3 1.2-0.3 2.6 0.3 3.8c0.6 1.2 1.6 2.2 2.8 2.8c1.1 0.5 2.5 0.6 3.6 0.4c2-0.5 3.6-2 4.2-3.9c0.4-1.3 0.3-2.8-0.2-4c-0.5-1.2-1.5-2.2-2.7-2.8c-1-0.5-2.2-0.7-3.4-0.5zm0.2 5.2q0-1.5 0-3.1c0.4 0 0.8 0 1.2 0q0 1.6 0 3.1q1.5 0 3 0c0 0.4 0 0.8 0 1.2q-1.5 0-3 0q0 1.5 0 3c-0.4 0-0.8 0-1.2 0q0-1.5 0-3q-1.5 0-3 0c0-0.4 0-0.8 0-1.2q1.5 0 3 0z" /></g></svg>