<svg version="1.2" xmlns="http://www.w3.org/2000/svg" viewBox="0 0 26 20" width="26" height="20"><defs><clipPath clipPathUnits="userSpaceOnUse" id="cp1"><path d="m-308-466h1440v900h-1440z" /></clipPath></defs><style>.s0{fill:#ffffff;stroke:#1c1c1c;stroke-width:.5}</style><g clip-path="url(#cp1)"><path fill-rule="evenodd" class="s0" d="m3.1 10q0.2-0.3 0.5-0.7c0.5-0.9 1.2-1.8 2-2.6c2.2-2.3 4.7-3.7 7.4-3.7c2.7 0 5.2 1.4 7.4 3.7c0.8 0.8 1.5 1.7 2 2.6q0.3 0.4 0.5 0.7q-0.2 0.3-0.5 0.7c-0.5 0.9-1.2 1.8-2 2.6c-2.2 2.3-4.7 3.7-7.4 3.7c-2.7 0-5.2-1.4-7.4-3.7c-0.8-0.8-1.5-1.7-2-2.6q-0.3-0.4-0.5-0.7zm-2 0.4q0.2 0.5 0.8 1.4q0.9 1.5 2.2 2.9c2.6 2.7 5.5 4.3 8.9 4.3c3.4 0 6.3-1.6 8.9-4.3q1.3-1.4 2.2-2.9q0.6-0.9 0.8-1.4c0.1-0.2 0.1-0.6 0-0.8q-0.2-0.5-0.8-1.4q-0.9-1.5-2.2-2.9c-2.6-2.7-5.5-4.3-8.9-4.3c-3.4 0-6.3 1.6-8.9 4.3q-1.3 1.4-2.2 2.9q-0.6 0.9-0.8 1.4c-0.1 0.2-0.1 0.6 0 0.8z" /><path fill-rule="evenodd" class="s0" d="m13 14c-2.2 0-4-1.8-4-4c0-2.2 1.8-4 4-4c2.2 0 4 1.8 4 4c0 2.2-1.8 4-4 4zm0-2c1.1 0 2-0.9 2-2c0-1.1-0.9-2-2-2c-1.1 0-2 0.9-2 2c0 1.1 0.9 2 2 2z" /></g></svg>