<svg version="1.2" xmlns="http://www.w3.org/2000/svg" viewBox="0 0 23 24" width="23" height="24"><defs><clipPath clipPathUnits="userSpaceOnUse" id="cp1"><path d="m-267-464h1440v900h-1440z" /></clipPath></defs><style>.s0{fill:#ffffff;stroke:#ffffff;stroke-width:.7}</style><g clip-path="url(#cp1)"><path fill-rule="evenodd" class="s0" d="m10.7 1.9l9 9c0.1 0.1 0.1 0.3 0 0.4l-9 9c-0.1 0.1-0.4 0.1-0.5 0l-9-9c-0.1-0.1-0.1-0.3 0-0.4l9-9c0.1-0.1 0.4-0.1 0.5 0zm8.3 9.2l-8.5-8.5l-8.6 8.5l8.6 8.5z" /><path class="s0" d="m13.2 22.8c-0.4 0-0.4-0.7 0-0.6c4.5 0.3 6.3-2.3 6.7-6.3l-1 0.7c-0.3 0.3-0.7-0.2-0.4-0.5l1.6-1.2c0.1-0.2 0.3-0.1 0.5 0l1.2 1.7c0.2 0.3-0.3 0.7-0.6 0.4l-0.7-1c-0.5 4.4-2.6 7.2-7.3 6.8z" /></g></svg>