<svg version="1.2" xmlns="http://www.w3.org/2000/svg" viewBox="0 0 24 23" width="24" height="23"><defs><clipPath clipPathUnits="userSpaceOnUse" id="cp1"><path d="m-230-463h1440v900h-1440z" /></clipPath></defs><style>.s0{fill:#ffffff;stroke:#ffffff;stroke-width:.7}</style><g clip-path="url(#cp1)"><path fill-rule="evenodd" class="s0" d="m2.1 12.1l8.9-8.9c0.1-0.2 0.3-0.2 0.5 0l8.9 8.9c0.1 0.2 0.1 0.4 0 0.5l-8.9 9c-0.2 0.1-0.4 0.1-0.5 0l-8.9-9c-0.2-0.1-0.2-0.3 0-0.5zm9.1-8.2l-8.4 8.5l8.4 8.5l8.5-8.5z" /><path class="s0" d="m23 9.6c-0.1 0.5-0.7 0.4-0.7 0c0.3-4.4-2.2-6.2-6.3-6.7l0.8 1c0.2 0.3-0.3 0.7-0.5 0.4l-1.3-1.5c-0.1-0.2-0.1-0.4 0.1-0.5l1.6-1.2c0.4-0.3 0.8 0.2 0.4 0.5l-0.9 0.7c4.4 0.5 7.1 2.6 6.8 7.3z" /></g></svg>